<svg width="50" height="11" viewBox="0 0 50 11" fill="none" xmlns="http://www.w3.org/2000/svg">
<path d="M48.2954 5.33925V1.95465H50V2.22952H48.6072V3.50541H49.9508V3.78028H48.6072V5.06438H50V5.33925H48.2954Z" fill="#174A80"/>
<path d="M44.5166 5.33925V1.95465H44.8284V3.50541H46.6766V1.95465H46.9863V5.33925H46.6766V3.78028H44.8284V5.33925H44.5166Z" fill="#174A80"/>
<path d="M42.4911 5.4049C42.2381 5.4049 42.0029 5.36046 41.7855 5.27157C41.568 5.18268 41.3779 5.05892 41.2152 4.90029C41.0538 4.74029 40.928 4.55363 40.8378 4.34029C40.7475 4.12696 40.7024 3.89654 40.7024 3.64902C40.7024 3.4015 40.7475 3.17107 40.8378 2.95774C40.928 2.74441 41.0538 2.55842 41.2152 2.39979C41.3779 2.23979 41.5673 2.11535 41.7834 2.02646C42.0008 1.93757 42.2367 1.89313 42.4911 1.89313C42.7031 1.89313 42.902 1.92458 43.088 1.98749C43.274 2.04902 43.4381 2.13381 43.5803 2.24184L43.4326 2.50236C43.3123 2.40526 43.1728 2.33073 43.0142 2.27877C42.8555 2.2268 42.6873 2.20082 42.5096 2.20082C42.2949 2.20082 42.0979 2.23774 41.9188 2.31159C41.741 2.38543 41.5865 2.488 41.4552 2.61928C41.3239 2.75056 41.222 2.9044 41.1496 3.08081C41.0785 3.25722 41.0429 3.44662 41.0429 3.64902C41.0429 3.85141 41.0785 4.04081 41.1496 4.21722C41.222 4.39363 41.3239 4.54747 41.4552 4.67875C41.5865 4.81004 41.741 4.9126 41.9188 4.98644C42.0979 5.06029 42.2949 5.09721 42.5096 5.09721C42.6873 5.09721 42.8555 5.07123 43.0142 5.01927C43.1728 4.9673 43.3123 4.89277 43.4326 4.79568L43.5803 5.05619C43.4395 5.16285 43.2761 5.24764 43.0901 5.31055C42.9055 5.37345 42.7058 5.4049 42.4911 5.4049Z" fill="#174A80"/>
<path d="M37.9405 5.33925V1.95465H38.8184C39.04 1.95465 39.2314 1.99294 39.3928 2.06952C39.5542 2.1461 39.6786 2.25619 39.7661 2.39978C39.855 2.542 39.8994 2.71225 39.8994 2.91054C39.8994 3.09242 39.8618 3.25311 39.7866 3.39259C39.7128 3.53071 39.6075 3.64285 39.4707 3.729C39.3353 3.81379 39.174 3.86575 38.9866 3.8849L40.1128 5.33925H39.7169L38.6379 3.91361H38.2523V5.33925H37.9405ZM38.2523 3.64285H38.7446C38.9169 3.64285 39.0653 3.61345 39.1897 3.55464C39.3142 3.49584 39.4099 3.41242 39.4769 3.30439C39.5453 3.19499 39.5794 3.06644 39.5794 2.91875C39.5794 2.69721 39.5056 2.52354 39.3579 2.39773C39.2102 2.27191 39.0058 2.20901 38.7446 2.20901H38.2523V3.64285Z" fill="#174A80"/>
<path d="M36.3211 5.33925V1.95465H36.6329V5.33925H36.3211Z" fill="#174A80"/>
<path d="M33.023 5.33925V1.95465H33.3348V3.50541L34.8528 1.95465H35.2466L33.6056 3.63054L35.4189 5.33925H34.98L33.3348 3.80285V5.33925H33.023Z" fill="#174A80"/>
<path d="M28.9429 5.33925V1.95465H30.6475V2.22952H29.2547V3.50541H30.5983V3.78028H29.2547V5.06438H30.6475V5.33925H28.9429Z" fill="#174A80"/>
<path d="M27.3236 5.33925V1.95465H27.6353V5.33925H27.3236Z" fill="#174A80"/>
<path d="M24.5023 5.33925V1.95465H26.2069V2.22952H24.814V3.50541H26.1576V3.78028H24.814V5.06438H26.2069V5.33925H24.5023Z" fill="#174A80"/>
<path d="M21.4286 5.33925V1.95465H22.3065C22.528 1.95465 22.7195 1.99294 22.8809 2.06952C23.0422 2.1461 23.1667 2.25619 23.2542 2.39978C23.3431 2.542 23.3875 2.71225 23.3875 2.91054C23.3875 3.09242 23.3499 3.25311 23.2747 3.39259C23.2008 3.53071 23.0956 3.64285 22.9588 3.729C22.8234 3.81379 22.662 3.86575 22.4747 3.8849L23.6008 5.33925H23.205L22.126 3.91361H21.7403V5.33925H21.4286ZM21.7403 3.64285H22.2326C22.405 3.64285 22.5533 3.61345 22.6778 3.55464C22.8022 3.49584 22.8979 3.41242 22.965 3.30439C23.0333 3.19499 23.0675 3.06644 23.0675 2.91875C23.0675 2.69721 22.9937 2.52354 22.846 2.39773C22.6983 2.27191 22.4938 2.20901 22.2326 2.20901H21.7403V3.64285Z" fill="#174A80"/>
<path d="M18.6714 5.33925V1.95465H20.3842V2.22952H18.8601L18.9831 2.13721V3.69003L18.8601 3.50541H20.2898V3.78028H18.8601L18.9831 3.59567V5.33925H18.6714Z" fill="#174A80"/>
<path d="M44.605 10.4674V7.08282H45.2696L46.728 9.35974V7.08282H47.3927V10.4674H46.728L45.2696 8.19051V10.4674H44.605Z" fill="#174A80"/>
<path d="M41.7036 10.4674V7.08282H43.5866V7.66539H42.3682V8.47974H43.5374V9.0623H42.3682V9.88486H43.5866V10.4674H41.7036Z" fill="#174A80"/>
<path d="M39.272 10.5331C39.0395 10.5331 38.8228 10.4886 38.6217 10.3997C38.4207 10.3109 38.245 10.1871 38.0946 10.0285C37.9441 9.86847 37.8265 9.6818 37.7417 9.46847C37.657 9.25514 37.6146 9.02403 37.6146 8.77514C37.6146 8.53719 37.6542 8.31292 37.7335 8.10232C37.8129 7.89036 37.927 7.70369 38.0761 7.54232C38.2252 7.37959 38.405 7.25241 38.6156 7.16079C38.8262 7.0678 39.0621 7.0213 39.3233 7.0213C39.471 7.0213 39.6193 7.03771 39.7684 7.07053C39.9188 7.10335 40.0631 7.1519 40.2012 7.21617C40.3393 7.27908 40.4638 7.35634 40.5745 7.44797L40.2628 7.96283C40.1438 7.85207 39.9995 7.7666 39.8299 7.70643C39.6617 7.64489 39.4956 7.61412 39.3315 7.61412C39.1701 7.61412 39.0272 7.64284 38.9028 7.70027C38.7797 7.75634 38.6758 7.83566 38.591 7.93822C38.5062 8.04078 38.4419 8.16112 38.3981 8.29924C38.3544 8.43599 38.3325 8.58505 38.3325 8.74642C38.3325 8.92283 38.3571 9.08283 38.4064 9.22642C38.4556 9.37001 38.524 9.49377 38.6115 9.5977C38.7004 9.70163 38.8036 9.78163 38.9212 9.8377C39.0402 9.89376 39.1681 9.9218 39.3048 9.9218C39.4142 9.9218 39.5195 9.90402 39.6207 9.86847C39.7233 9.83154 39.8142 9.78026 39.8935 9.71462C39.9728 9.64898 40.0357 9.57172 40.0822 9.48283C40.1287 9.39394 40.152 9.29684 40.152 9.19155V9.14026H39.2638V8.6254H40.8289V9.13821C40.8289 9.34471 40.7858 9.53342 40.6997 9.70436C40.6149 9.87394 40.4987 10.0209 40.351 10.1454C40.2033 10.2685 40.0364 10.3642 39.8504 10.4326C39.6645 10.4996 39.4716 10.5331 39.272 10.5331Z" fill="#174A80"/>
<path d="M33.9416 10.4674V7.08282H34.6062L36.0646 9.35974V7.08282H36.7293V10.4674H36.0646L34.6062 8.19051V10.4674H33.9416Z" fill="#174A80"/>
<path d="M32.1459 10.4674V7.08282H32.8105V10.4674H32.1459Z" fill="#174A80"/>
<path d="M28.5634 10.4674V7.08282H29.228V8.4941L30.469 7.08282H31.2813L29.8372 8.71153L31.4865 10.4674H30.5675L29.228 9.03769V10.4674H28.5634Z" fill="#174A80"/>
<path d="M25.4536 10.4674V7.08282H26.6065C26.8266 7.08282 27.0222 7.12112 27.1931 7.1977C27.3641 7.27428 27.4988 7.38846 27.5972 7.54026C27.6957 7.69068 27.7449 7.87872 27.7449 8.10436C27.7449 8.32863 27.6957 8.52008 27.5972 8.67871C27.4988 8.83735 27.3641 8.95905 27.1931 9.04384C27.0222 9.12726 26.8266 9.16897 26.6065 9.16897H26.1182V10.4674H25.4536ZM26.1182 8.63769H26.4013C26.5176 8.63769 26.6242 8.62059 26.7213 8.58641C26.8198 8.55222 26.8991 8.49752 26.9593 8.4223C27.0194 8.34709 27.0495 8.24795 27.0495 8.12487C27.0495 8.00043 27.0194 7.90128 26.9593 7.82744C26.8991 7.75222 26.8198 7.69821 26.7213 7.66539C26.6242 7.6312 26.5176 7.6141 26.4013 7.6141H26.1182V8.63769Z" fill="#174A80"/>
<path d="M23.658 10.4674V7.08282H24.3226V10.4674H23.658Z" fill="#174A80"/>
<path d="M19.1821 10.4674L18.2077 7.08282H18.9462L19.5862 9.55666L20.3083 7.08282H20.8067L21.5267 9.55666L22.1667 7.08282H22.9072L21.9308 10.4674H21.1923L20.5565 8.36487L19.9226 10.4674H19.1821Z" fill="#174A80"/>
<path d="M0 -2.95639e-05L3.6521 7.10885L6.61511 7.1098L2.96301 0.000918388L0 -2.95639e-05Z" fill="#FFD21F"/>
<path d="M6.34108 2.89047L8.50901 7.11029L9.99128 4.22881L9.30409 2.89123L6.34108 2.89047Z" fill="#FFD21F"/>
<path d="M8.92426 9.99905L11.8871 10L15.543 2.8932V2.89282L12.5801 2.89206L8.92426 9.99905Z" fill="#FFD21F"/>
</svg>
